<mxfile host="app.diagrams.net" modified="2024-07-15T11:23:03.462Z" agent="Mozilla/5.0 (Windows NT 10.0; Win64; x64) AppleWebKit/537.36 (KHTML, like Gecko) Chrome/125.0.0.0 Safari/537.36 Edg/125.0.0.0" etag="3i75Pm1NuhD7uMsqXEjk" version="24.6.5" type="github">
  <diagram name="Page-1" id="FgEAp5zIvmQN_J7tIbwo">
    <mxGraphModel dx="1157" dy="736" grid="1" gridSize="10" guides="1" tooltips="1" connect="1" arrows="1" fold="1" page="1" pageScale="1" pageWidth="850" pageHeight="1100" math="0" shadow="0">
      <root>
        <mxCell id="0" />
        <mxCell id="1" parent="0" />
        <mxCell id="CSwMS6x2vKCzfNLJ0Iir-1" value="&lt;font style=&quot;font-size: 24px;&quot; face=&quot;Georgia&quot;&gt;PickItUp V2 Backend Microservice Arch&lt;/font&gt;" style="text;html=1;align=center;verticalAlign=middle;whiteSpace=wrap;rounded=0;" vertex="1" parent="1">
          <mxGeometry x="230" y="10" width="430" height="90" as="geometry" />
        </mxCell>
        <mxCell id="CSwMS6x2vKCzfNLJ0Iir-2" value="&lt;font style=&quot;font-size: 24px;&quot; face=&quot;Georgia&quot;&gt;Domains&lt;/font&gt;" style="text;html=1;align=center;verticalAlign=middle;resizable=0;points=[];autosize=1;strokeColor=none;fillColor=none;" vertex="1" parent="1">
          <mxGeometry x="355" y="105" width="120" height="40" as="geometry" />
        </mxCell>
        <mxCell id="CSwMS6x2vKCzfNLJ0Iir-4" value="&lt;font face=&quot;Georgia&quot;&gt;&lt;span style=&quot;font-size: 24px;&quot;&gt;Clientele Domain&lt;/span&gt;&lt;/font&gt;&lt;div&gt;&lt;font face=&quot;Georgia&quot;&gt;&lt;span style=&quot;font-size: 24px;&quot;&gt;Order Domain&lt;/span&gt;&lt;/font&gt;&lt;/div&gt;&lt;div&gt;&lt;font face=&quot;Georgia&quot;&gt;&lt;span style=&quot;font-size: 24px;&quot;&gt;Notification Domain&lt;/span&gt;&lt;/font&gt;&lt;/div&gt;&lt;div&gt;&lt;font face=&quot;Georgia&quot;&gt;&lt;span style=&quot;font-size: 24px;&quot;&gt;&lt;br&gt;&lt;/span&gt;&lt;/font&gt;&lt;/div&gt;" style="text;html=1;align=center;verticalAlign=middle;whiteSpace=wrap;rounded=0;" vertex="1" parent="1">
          <mxGeometry x="280" y="160" width="310" height="120" as="geometry" />
        </mxCell>
        <mxCell id="CSwMS6x2vKCzfNLJ0Iir-5" value="Actor" style="shape=umlActor;verticalLabelPosition=bottom;verticalAlign=top;html=1;outlineConnect=0;" vertex="1" parent="1">
          <mxGeometry x="40" y="420" width="30" height="60" as="geometry" />
        </mxCell>
      </root>
    </mxGraphModel>
  </diagram>
</mxfile>
